<?xml version="1.0" encoding="UTF-8"?> <svg xmlns="http://www.w3.org/2000/svg" width="204" height="56" viewBox="0 0 204 56" fill="none"><g clip-path="url(#clip0_208_93)"><path d="M18.4157 40.0304H27.7285V47H10.0041V8.12658H27.7285V14.976H18.4157V24.1085H27.1277V30.7176H18.4157V40.0304ZM41.0053 31.0781V47H32.5938V8.12658H47.5543C52.5211 8.12658 55.0046 10.7702 55.0046 16.0575V20.5637C55.0046 23.7681 53.863 25.8109 51.5799 26.6921C53.5826 27.4131 54.584 29.0553 54.584 31.6189V47H46.1724V32.2798C46.1724 31.4787 45.7919 31.0781 45.0309 31.0781H41.0053ZM41.0053 13.8344V25.19H45.4514C45.7719 25.19 46.0322 25.0699 46.2325 24.8295C46.4728 24.5892 46.593 24.3088 46.593 23.9884V15.0361C46.593 14.7156 46.4728 14.4353 46.2325 14.1949C46.0322 13.9546 45.7719 13.8344 45.4514 13.8344H41.0053ZM71.761 31.5588V25.3703H82.8763V39.6699C82.8763 44.9572 80.3929 47.6008 75.4261 47.6008H67.8557C62.8888 47.6008 60.4054 44.9572 60.4054 39.6699V15.4567C60.4054 10.1694 62.8888 7.52576 67.8557 7.52576H75.4261C80.3929 7.52576 82.8763 10.1694 82.8763 15.4567V19.1217H74.8853V14.4352C74.8853 14.1148 74.7652 13.8344 74.5248 13.5941C74.3245 13.3538 74.0642 13.2336 73.7437 13.2336H69.9585C69.6381 13.2336 69.3577 13.3538 69.1174 13.5941C68.9171 13.8344 68.817 14.1148 68.817 14.4352V40.6312C68.817 40.9517 68.9171 41.2321 69.1174 41.4724C69.3577 41.7127 69.6381 41.8329 69.9585 41.8329H73.7437C74.0642 41.8329 74.3245 41.7127 74.5248 41.4724C74.7652 41.2321 74.8853 40.9517 74.8853 40.6312V31.5588H71.761ZM110.404 15.4567V39.6699C110.404 44.9572 107.921 47.6008 102.954 47.6008H94.9632C89.9964 47.6008 87.513 44.9572 87.513 39.6699V15.4567C87.513 10.1694 89.9964 7.52576 94.9632 7.52576H102.954C107.921 7.52576 110.404 10.1694 110.404 15.4567ZM101.993 40.6312V14.4352C101.993 14.1148 101.873 13.8344 101.632 13.5941C101.432 13.3538 101.172 13.2336 100.851 13.2336H97.0661C96.7457 13.2336 96.4653 13.3538 96.225 13.5941C96.0247 13.8344 95.9245 14.1148 95.9245 14.4352V40.6312C95.9245 40.9517 96.0247 41.2321 96.225 41.4724C96.4653 41.7127 96.7457 41.8329 97.0661 41.8329H100.851C101.172 41.8329 101.432 41.7127 101.632 41.4724C101.873 41.2321 101.993 40.9517 101.993 40.6312Z" fill="white"></path><path d="M138.185 18.3406H130.194V15.2764C130.194 14.956 130.074 14.6756 129.834 14.4352C129.633 14.1949 129.373 14.0748 129.053 14.0748H125.748C125.428 14.0748 125.147 14.1949 124.907 14.4352C124.707 14.6756 124.606 14.956 124.606 15.2764V22.1859C124.606 22.5063 124.707 22.7867 124.907 23.0271C125.147 23.2674 125.428 23.3876 125.748 23.3876H131.155C136.122 23.4677 138.606 26.1113 138.606 31.3185V39.6699C138.606 44.9572 136.122 47.6008 131.155 47.6008H124.066C119.099 47.6008 116.615 44.9572 116.615 39.6699V35.6444H124.606V39.9703C124.606 40.2908 124.707 40.5712 124.907 40.8115C125.147 41.0518 125.428 41.172 125.748 41.172H129.473C129.794 41.172 130.054 41.0518 130.254 40.8115C130.495 40.5712 130.615 40.2908 130.615 39.9703V32.3399C130.615 32.0194 130.495 31.739 130.254 31.4987C130.054 31.2584 129.794 31.1382 129.473 31.1382H124.066C119.099 31.1382 116.615 28.4946 116.615 23.2073V15.4567C116.615 10.1694 119.099 7.52576 124.066 7.52576H130.735C135.702 7.52576 138.185 10.1694 138.185 15.4567V18.3406ZM152.545 40.0304H161.858V47H144.134V8.12658H161.858V14.976H152.545V24.1085H161.257V30.7176H152.545V40.0304ZM164.5 15.2764V8.12658H185.529V15.2764H179.221V47H170.809V15.2764H164.5Z" fill="#F2F1F3"></path><circle cx="186.439" cy="40.4389" r="12.4389" fill="white"></circle><path d="M181.497 41.6008V46.2739H179.028V34.8644H183.419C184.877 34.8644 185.606 35.6403 185.606 37.1922V38.5147C185.606 39.4552 185.271 40.0548 184.601 40.3135C185.189 40.5251 185.482 41.0071 185.482 41.7595V46.2739H183.014V41.9535C183.014 41.7183 182.902 41.6008 182.679 41.6008H181.497ZM181.497 36.5397V39.8726H182.802C182.896 39.8726 182.972 39.8373 183.031 39.7668C183.102 39.6963 183.137 39.614 183.137 39.5199V36.8924C183.137 36.7983 183.102 36.716 183.031 36.6455C182.972 36.5749 182.896 36.5397 182.802 36.5397H181.497ZM191.265 34.8644H193.733V44.1225C193.733 45.6744 193.005 46.4503 191.547 46.4503H189.36C187.902 46.4503 187.173 45.6744 187.173 44.1225V34.8644H189.642V44.3341C189.642 44.4282 189.672 44.5105 189.73 44.581C189.801 44.6516 189.883 44.6868 189.977 44.6868H190.93C191.024 44.6868 191.1 44.6516 191.159 44.581C191.229 44.5105 191.265 44.4282 191.265 44.3341V34.8644Z" fill="black"></path></g><defs><clipPath id="clip0_208_93"><rect width="204" height="56" fill="white"></rect></clipPath></defs></svg> 